<svg width="268" height="68" viewBox="0 0 268 68" fill="none" xmlns="http://www.w3.org/2000/svg">
<g clip-path="url(#clip0_3_100)">
<mask id="mask0_3_100" style="mask-type:luminance" maskUnits="userSpaceOnUse" x="0" y="0" width="268" height="68">
<path d="M0 0H268V68H0V0Z" fill="white"/>
</mask>
<g mask="url(#mask0_3_100)">
<path fill-rule="evenodd" clip-rule="evenodd" d="M245.174 68L260.499 20.9973L240.353 38.7973L238.531 35.28L268 0H202.313L191.489 46.3627L209.279 28.672L212.277 33.7867L183.561 68H245.174ZM213.135 24.6213L217.423 20.3573H224.174L220.529 24.6213H213.135ZM227.709 47.536L231.351 43.3787H234.674L230.603 47.6427L227.709 47.536Z" fill="black"/>
<path fill-rule="evenodd" clip-rule="evenodd" d="M19.824 36.5733C19.6096 34.7627 19.3952 33.1627 19.0736 31.5653C20.1456 31.8853 20.6816 32.736 20.896 33.8027C21.1104 34.7627 20.7888 35.9333 19.824 36.5733ZM181.203 42.8613C183.132 31.8853 185.274 20.9067 187.203 9.82133C182.489 10.888 175.31 12.8053 172.63 13.4453C171.343 21.864 170.059 30.4987 168.559 38.9173C168.237 39.024 167.915 39.024 167.594 39.024C168.237 30.9253 168.559 23.6773 169.309 14.512C164.914 15.1493 160.414 16.0027 156.022 16.9627C155.914 18.56 155.593 20.9067 155.486 23.0373C155.057 21.12 154.735 19.3067 154.306 17.2827C149.699 17.816 144.983 18.3493 140.269 18.88C139.947 19.9467 139.84 20.6933 139.518 21.9707C133.303 18.3493 124.301 19.6267 117.443 21.12C114.23 21.12 110.48 20.9067 107.157 20.8C107.05 22.9307 106.836 25.064 106.728 27.088C105.656 24.9573 104.584 22.824 103.408 20.5867C99.9774 20.48 96.5497 20.3733 93.3337 20.2667C92.9049 24.104 92.5833 28.048 91.9401 31.7787C91.5113 31.5653 90.5465 31.5653 89.906 31.5653C90.1204 29.752 90.3348 27.9413 90.442 26.0213C89.0484 22.7173 85.8324 20.0533 82.4046 18.9867C75.5465 16.6427 67.1876 17.3893 61.7231 22.2907C60.9727 20.16 60.4367 18.6667 59.9007 16.536C55.7226 15.7893 47.4708 14.2987 46.506 14.0853C46.2916 14.512 46.1844 14.832 45.97 15.3627C40.5055 9.39467 33.3258 6.73067 25.2885 7.69067C25.1813 8.86133 25.0741 9.928 25.0741 10.888C21.7536 8.01067 18.216 5.55733 14.3594 3.96C9.96692 2.25333 5.03572 0.975999 0 1.50667C1.3936 10.568 4.17812 29.0053 4.28532 29.3253C4.82132 29.3253 5.89332 29.3253 6.53652 29.432C8.46612 40.624 10.1786 51.496 11.8938 62.6853C15.753 62.2613 19.3952 60.448 22.8256 58.3173C22.9328 59.488 23.04 60.448 23.1472 61.408L37.2895 62.368C37.3967 61.6213 37.3967 60.8747 37.6111 60.2347C38.3615 61.3013 38.7903 62.5813 39.4335 63.8587C44.362 62.2613 49.4004 60.3413 54.329 58.6373C53.9002 57.5707 53.1498 56.6107 52.6138 55.5467C53.0426 55.5467 53.4714 55.6533 53.9002 55.5467C54.1146 54.48 54.2218 53.6267 54.5434 52.2427C54.7578 53.52 55.7226 59.2747 56.1514 61.728C58.3999 61.408 60.3295 61.088 62.6879 60.768C65.0436 62.4747 67.7236 63.752 70.6153 64.392C76.1897 65.032 81.3326 62.6853 85.082 58.6373C86.154 59.064 87.8692 59.488 88.834 59.3813C88.7268 61.1947 88.6196 62.792 88.6196 64.392C94.0841 64.392 99.6558 64.2853 105.12 64.1787C105.228 63.112 105.335 62.048 105.549 60.9813C106.192 62.2613 106.728 63.112 107.586 64.4987C111.442 64.392 115.302 64.392 119.373 64.392C119.373 59.1707 119.48 50.1093 119.587 50.1093C120.23 55.3333 120.445 58.744 120.981 63.5387C124.944 64.4987 129.661 63.9653 133.625 63.5387L133.839 63.752C137.91 63.9653 142.091 64.392 146.162 64.6053C146.591 61.728 147.234 57.6773 147.555 55.0133L148.735 63.8587C153.449 63.2187 158.163 62.2613 162.987 61.6213C162.772 60.3413 162.665 59.5947 162.451 58.5307C163.416 58.424 164.699 58.2107 165.557 58.104C165.343 59.9147 165.128 61.6213 164.914 63.5387C171.665 63.432 185.595 63.6453 185.703 63.432C187.203 56.3973 189.24 45.528 190.205 41.0507C187.203 41.6907 184.738 42.224 181.203 42.8613Z" fill="black"/>
<path fill-rule="evenodd" clip-rule="evenodd" d="M260.927 3.224C256.535 8.552 243.247 24.5413 234.567 34.9867C235.317 36.584 236.068 38.2907 236.818 40.1013C234.674 40.1013 233.388 40.1013 230.282 39.9947C227.602 43.512 223.638 48.2027 221.815 50.5467C225.458 50.44 228.566 50.44 231.672 50.44C239.067 43.9387 246.353 37.224 253.855 30.936C250.427 42.2347 246.782 53.3173 243.033 64.5093C243.14 64.7227 242.819 64.616 242.711 64.8293C224.922 64.7227 208.957 64.8293 191.06 64.616C199.311 54.5973 207.885 44.6853 216.458 34.7733C215.064 32.32 213.778 30.0827 212.599 27.8453C215.815 27.8453 218.707 27.8453 222.137 27.952C225.35 24.4347 228.245 20.8107 231.351 17.1867H215.708C209.707 23.368 203.814 29.2293 197.703 35.4133C198.025 34.1333 202.527 13.5627 205.098 3.11733C224.388 3.11733 241.854 3.01067 260.927 3.224ZM177.879 46.0427C180.023 45.6187 183.239 45.0853 186.774 44.4453C185.917 49.56 184.63 54.8907 183.561 60.0053C178.094 60.0053 173.165 60.2187 168.022 60.2187C168.13 59.368 168.237 58.6213 168.344 57.768C170.274 57.448 172.201 57.3413 174.237 57.128C174.559 55.3173 176.489 44.232 177.665 37.5173C175.202 37.8373 173.165 38.1573 171.129 38.4773C172.308 31.336 173.809 22.9147 174.988 15.4533C177.879 14.6027 180.881 13.856 183.99 13.1093C182.703 19.9307 179.916 35.3867 177.879 46.0427Z" fill="#E30613"/>
<path fill-rule="evenodd" clip-rule="evenodd" d="M166.2 17.6933C165.879 26.0053 165.235 33.5733 164.699 41.7813C166.522 41.4613 171.236 40.7147 174.452 40.288C174.13 42.208 172.951 50.2 172.094 54.2507C168.666 54.6773 164.592 55.2107 162.129 55.6373C160.629 47.7493 158.913 39.5413 157.627 31.7627C157.841 27.4987 157.949 23.2347 158.27 19.0773C160.95 18.5467 163.523 18.0133 166.2 17.6933Z" fill="#E30613"/>
<path fill-rule="evenodd" clip-rule="evenodd" d="M87.7619 26.3467C87.6547 28.1573 87.4403 29.8613 87.2259 31.6747C85.2963 31.9947 82.8334 33.0613 81.1182 34.552C80.5822 33.912 80.0462 33.272 79.1886 32.848C76.6185 31.248 72.6521 31.888 70.2964 33.168C67.1876 35.0853 66.33 37.7493 66.866 42.12C65.4724 36.5787 64.0788 31.248 62.5806 25.4933C67.402 20.9093 73.2953 19.2053 81.1182 21.4427C83.4766 22.5093 86.4755 23.68 87.7619 26.3467ZM101.907 22.7013C104.263 27.6053 106.621 32.4 108.979 37.1973C109.408 32.5067 109.515 27.712 109.73 23.0213C112.086 23.0213 114.551 23.2347 117.017 23.3413C117.336 36.2373 117.124 48.2827 117.017 61.2853C114.551 61.2853 111.657 61.2853 109.087 61.392C107.479 58.088 105.763 54.784 103.941 51.48C103.622 54.464 103.086 58.3013 102.657 61.392C99.1198 61.4987 95.2632 61.392 91.6184 61.392V59.368C96.5496 58.728 102.014 54.6773 103.408 49.7733C104.906 44.7653 103.729 39.0107 99.6558 35.28C98.2622 34 96.6568 33.04 94.9416 32.296C95.3704 28.5653 96.0136 22.488 96.0136 22.488C98.155 22.488 99.9774 22.488 101.907 22.7013ZM39.2191 33.7867C38.4687 34.2133 37.6111 34.5333 36.9679 34.2133C37.1823 31.5493 37.3967 29.096 37.7183 26.112C38.8975 26.2187 39.9695 26.9653 40.6127 28.2453C41.1487 29.5227 40.8271 32.5067 39.2191 33.7867ZM40.3983 40.928C42.5423 39.5413 44.7908 37.624 46.1844 35.28C48.7572 31.336 49.186 25.1547 46.6132 20.9973C43.826 15.4533 37.9327 11.2987 32.0394 10.232C30.753 10.0187 29.2548 9.912 27.9684 9.912C27.8612 11.192 27.8612 12.3627 27.754 13.6427C30.0052 16.4133 31.6106 19.3973 32.7898 22.5947C36.9679 34 34.1834 47.216 25.9316 55.744V58.6213C28.826 58.8347 31.825 58.9413 34.8266 59.048C35.2554 55.424 35.7914 50.6267 36.0058 48.496C37.7183 52.3333 39.2191 55.744 40.8271 59.792C43.826 58.728 49.5076 56.808 50.2553 56.488C47.042 51.3733 43.6116 46.0427 40.3983 40.928Z" fill="#FFD300"/>
<path fill-rule="evenodd" clip-rule="evenodd" d="M22.8256 38.264C21.6464 39.7547 19.9312 40.608 18.1088 40.8213C17.7872 38.6907 16.2891 29.5227 15.9675 27.392C18.8592 27.8187 22.0752 28.672 23.4661 31.656C24.4309 33.7867 24.2165 36.4507 22.8256 38.264ZM29.0405 21.3173C24.5381 11.4053 14.1451 4.584 3.64213 3.944C3.53493 4.05067 3.42773 4.05067 3.42773 4.15733C4.49973 11.2987 6.75093 25.792 6.85813 26.6453H9.43094C11.1435 37.304 12.8587 47.9627 14.5739 58.728C18.1088 57.6613 21.3248 55.5307 24.3237 52.9707C32.0394 44.872 33.7546 31.4427 29.0405 21.3173ZM53.1498 37.1973C53.1498 37.1973 53.6858 31.016 54.0074 27.712C54.4362 31.1227 55.401 37.1973 55.401 37.1973H53.1498ZM57.8639 18.7573C54.865 18.12 51.8634 17.5867 48.7573 16.9467C48.7573 16.9467 48.6501 18.0133 48.5429 18.6533C49.5077 20.144 50.2554 21.3173 50.577 22.7013C53.1498 29.2027 50.4698 36.2373 45.4341 41.0347C45.3269 41.888 45.2197 42.7387 45.2197 43.592C46.9349 46.4693 48.8645 49.3467 50.7914 52.2267H51.7562C52.0778 49.7733 52.2922 48.0693 52.6138 45.832C54.1146 45.7253 54.865 45.7253 56.473 45.7253C57.1135 49.9867 58.2927 56.3813 58.6143 58.3013C61.6159 57.9813 64.5076 57.448 67.402 56.808C64.2932 44.0187 61.2943 31.336 57.8639 18.7573Z" fill="#FFD300"/>
<path fill-rule="evenodd" clip-rule="evenodd" d="M146.805 41.0347C147.019 38.264 147.341 35.6 147.663 32.8267C147.984 35.4933 148.306 38.264 148.627 41.0347H146.805ZM152.27 20.144C149.056 20.464 145.733 20.8907 142.627 21.2107C142.305 22.3813 142.305 22.808 142.198 23.768C143.377 25.2613 144.768 26.5387 145.411 29.736C146.483 34.2133 145.411 41.3547 140.59 44.7653C142.091 46.4693 143.27 48.2827 143.592 50.4133C144.447 54.3573 143.163 57.9813 140.161 60.752L144.021 61.072C144.661 56.3813 145.411 50.6267 145.733 48.2827C147.234 48.3893 148.091 48.3893 149.592 48.3893C150.128 52.5467 150.45 56.3813 150.983 60.2187C153.77 59.8987 157.094 59.368 159.878 58.9413C157.734 47.1093 152.484 21.3173 152.27 20.144Z" fill="#E30613"/>
<path fill-rule="evenodd" clip-rule="evenodd" d="M99.0073 39.08C101.473 42.2773 101.473 47.608 99.4361 51.1253C96.8633 55.28 92.2563 56.88 87.5422 56.0267C84.1118 55.28 80.4697 52.1893 79.5049 48.7787C77.8969 43.664 79.3977 39.6133 83.2542 36.736C86.363 34.2853 91.2915 33.8587 94.9363 35.5627C96.4345 36.3093 97.9353 37.5893 99.0073 39.08Z" fill="#F18A00"/>
<path fill-rule="evenodd" clip-rule="evenodd" d="M92.0472 43.1653C93.1192 43.0587 95.5848 43.0587 96.6568 43.0587C95.9064 43.912 93.9768 45.512 92.9048 46.4693C92.7976 46.6827 93.8696 50.2 94.2984 51.8C92.6904 50.4133 91.2968 49.4533 89.7987 48.3893C88.4051 49.3467 86.4755 50.7333 85.0819 51.8C85.7251 50.0933 86.4755 48.2827 87.1187 46.576C86.3683 45.832 84.5459 44.232 83.4766 43.0587C84.8675 43.0587 86.9043 43.1653 88.4051 43.1653C89.1555 41.4613 89.6915 39.8613 90.3347 38.264C90.4419 38.264 91.404 41.4613 92.0472 43.1653Z" fill="#E30613"/>
<path fill-rule="evenodd" clip-rule="evenodd" d="M77.795 38.3707C76.6185 39.7547 75.8681 42.952 75.9753 44.9787C74.4745 45.0853 71.6873 45.0853 71.6873 45.0853V38.3707H77.795ZM69.4388 47.1093C70.2964 47.856 71.3657 48.3893 72.4377 48.496C73.7241 48.7093 75.0105 48.6027 76.0825 48.176C76.9401 51.48 79.2958 55.3173 82.2974 56.9147C79.0814 60.112 74.9033 61.6053 70.6153 60.752C69.7604 60.432 68.7956 60.2187 68.0452 59.792C68.9028 59.4747 69.8676 59.2613 70.9369 58.9413C69.7604 54.0373 68.0452 47.3227 66.7588 41.7813C67.0804 42.952 68.0452 46.256 69.4388 47.1093Z" fill="#FFD300"/>
<path fill-rule="evenodd" clip-rule="evenodd" d="M131.422 38.0907C130.672 38.8373 129.814 39.1547 128.637 38.944C128.53 36.704 128.423 34.5733 128.316 32.76C129.814 32.6533 131.208 33.2933 131.958 34.5733C132.494 35.64 132.28 37.1307 131.422 38.0907ZM131.851 51.6267C131.315 52.5867 130.35 52.904 129.385 53.0107C129.278 51.4133 129.171 49.8133 128.959 48.1093C129.6 47.896 130.564 48.1093 131.1 48.6427C131.958 49.3867 132.28 50.56 131.851 51.6267ZM134.424 44.272C136.672 43.7387 139.03 42.672 140.531 40.5413C142.994 37.1307 143.101 31.4827 141.174 27.752C139.352 24.6613 136.243 22.9547 133.03 22.4213C128.423 21.8907 124.028 22.208 119.742 23.2747C119.742 27.752 119.635 31.4827 119.742 36.5973C120.171 36.704 120.6 36.704 121.136 36.8107C121.779 44.592 122.527 53.0107 123.277 60.8987C124.457 61.0053 124.993 60.8987 126.065 60.8987C131.636 60.3653 138.602 61.2187 140.638 54.824C141.603 51.4133 139.995 48.216 137.637 45.7653C136.672 44.912 135.817 44.4853 134.424 44.272Z" fill="#E30613"/>
</g>
</g>
<defs>
<clipPath id="clip0_3_100">
<rect width="268" height="68" fill="white"/>
</clipPath>
</defs>
</svg>
